 <svg  version="1.0" xmlns="http://www.w3.org/2000/svg"  width="300.000000pt" height="300.000000pt" viewBox="0 0 300.000000 300.000000"  preserveAspectRatio="xMidYMid meet">  <g transform="translate(0.000000,300.000000) scale(0.100000,-0.100000)" fill="#1eff00" stroke="none"> <path d="M1040 2961 c-158 -56 -238 -93 -344 -160 -111 -70 -97 -59 -202 -150 -133 -114 -250 -262 -343 -433 -48 -87 -72 -146 -107 -263 -14 -44 -29 -88 -35 -98 -12 -22 -11 -665 1 -704 5 -15 19 -62 31 -103 21 -75 36 -111 92 -230 117 -244 330 -476 572 -622 121 -73 238 -126 345 -158 25 -7 64 -19 88 -26 32 -11 120 -14 360 -14 293 0 322 2 382 21 36 11 76 23 90 25 14 3 43 13 65 23 22 10 69 31 105 46 154 67 309 176 442 312 104 105 119 124 191 230 89 130 146 257 211 470 13 43 16 108 16 378 l0 327 -45 136 c-63 186 -155 359 -259 487 -169 207 -444 410 -636 470 -3 1 -18 7 -35 14 -16 7 -53 19 -82 26 -28 7 -61 18 -72 24 -13 7 -138 11 -373 10 l-353 -1 -105 -37z m759 -1 c379 -77 716 -298 930 -610 168 -245 245 -477 258 -775 7 -178 -9 -342 -47 -478 -147 -522 -555 -919 -1085 -1054 -86 -22 -128 -26 -310 -30 -305 -7 -458 24 -700 141 -408 199 -713 583 -806 1018 -18 84 -22 137 -23 288 -2 329 23 452 145 705 57 121 134 230 249 355 74 81 120 119 267 227 41 30 255 136 313 156 110 37 243 68 326 76 135 13 371 4 483 -19z"/> <path d="M1350 2931 c0 -17 5 -31 11 -31 5 0 7 5 4 10 -3 6 1 10 10 10 22 0 15 34 -8 38 -13 3 -17 -3 -17 -27z"/> <path d="M1440 2936 c0 -27 24 -41 48 -26 14 8 13 9 -8 7 -33 -3 -41 30 -8 36 20 4 20 4 -4 6 -23 1 -28 -3 -28 -23z"/> <path d="M1590 2928 c0 -24 3 -29 9 -19 7 11 13 12 23 3 11 -9 14 -6 13 16 0 20 -6 28 -22 30 -20 3 -23 -1 -23 -30z"/> <path d="M1284 2939 c-7 -12 12 -28 36 -30 8 0 4 -5 -10 -10 l-25 -8 24 2 c35 3 38 25 4 34 l-28 7 25 7 c23 6 23 7 3 8 -12 1 -25 -4 -29 -10z"/> <path d="M1652 2923 c2 -18 9 -28 21 -29 12 -1 13 -1 2 3 -22 7 -18 21 8 26 21 4 21 4 -3 7 l-25 2 25 8 25 8 -28 1 c-25 1 -28 -2 -25 -26z"/> <path d="M1710 2930 c0 -6 7 -13 15 -16 24 -10 17 -26 -7 -19 -19 5 -20 4 -6 -5 17 -10 48 -4 48 10 0 5 -10 12 -22 16 l-23 8 25 7 25 7 -27 1 c-16 1 -28 -4 -28 -9z"/> <path d="M1187 2923 c-8 -14 12 -53 26 -53 8 0 20 7 27 15 10 12 10 18 0 30 -13 16 -46 20 -53 8z m46 -17 c3 -8 3 -17 0 -20 -13 -12 -31 -5 -36 14 -4 15 0 20 13 20 10 0 20 -6 23 -14z"/> <path d="M1776 2924 c6 -3 9 -17 8 -32 l-4 -27 11 28 c6 15 15 24 21 21 7 -4 8 -2 4 4 -4 7 -17 12 -29 11 -12 0 -17 -3 -11 -5z"/> <path d="M1133 2913 c-7 -2 -13 -14 -13 -25 0 -18 -1 -18 -16 -4 -12 12 -20 13 -35 6 -23 -13 -24 -24 -3 -44 12 -12 20 -13 35 -6 10 6 19 14 19 19 0 4 14 6 30 3 24 -3 30 -1 30 15 0 10 -5 24 -12 31 -13 13 -16 13 -35 5z m37 -29 c0 -8 -9 -14 -20 -14 -19 0 -27 19 -14 33 10 9 34 -4 34 -19z m-64 -15 c9 -16 -18 -30 -33 -17 -7 6 -13 14 -13 19 0 13 38 11 46 -2z"/> <path d="M1819 2893 c-20 -22 -21 -25 -5 -19 10 3 25 1 32 -5 11 -9 14 -6 14 14 0 37 -14 40 -41 10z"/> <path d="M1875 2879 c-9 -28 10 -47 33 -33 9 6 18 20 19 30 2 16 1 15 -9 -3 -16 -32 -42 -31 -34 2 8 30 0 34 -9 4z"/> <path d="M1018 2873 c-23 -6 -23 -15 0 -43 18 -22 18 -22 18 -1 0 12 -7 21 -15 21 -11 0 -10 4 5 15 20 15 20 15 -8 8z"/> <path d="M1940 2861 c-12 -24 -13 -42 -1 -22 7 11 11 9 21 -8 8 -15 17 -20 30 -16 12 4 22 0 28 -11 8 -14 10 -12 16 11 9 36 2 41 -30 21 -29 -20 -43 -14 -25 8 7 8 10 20 6 26 -10 16 -33 12 -45 -9z"/> <path d="M1355 2864 c-200 -31 -343 -76 -494 -154 -362 -190 -617 -532 -708 -953 -24 -113 -24 -387 0 -508 56 -280 182 -516 381 -715 121 -121 211 -186 354 -258 180 -91 337 -132 543 -142 299 -16 587 64 842 233 94 63 300 268 361 362 155 235 235 495 234 766 -1 378 -133 698 -400 968 -198 199 -407 314 -687 378 -84 19 -355 34 -426 23z m410 -54 c278 -60 487 -171 681 -364 171 -170 275 -350 354 -611 68 -227 44 -624 -52 -834 -11 -25 -29 -66 -40 -91 -18 -41 -60 -112 -127 -214 -39 -59 -250 -275 -290 -297 -20 -11 -52 -29 -71 -41 -141 -84 -319 -153 -477 -185 -116 -23 -353 -23 -479 0 -75 14 -227 59 -284 84 -8 3 -17 7 -20 8 -13 3 -195 102 -240 130 -66 42 -266 250 -324 338 -75 113 -141 245 -167 332 -11 39 -25 83 -30 99 -36 113 -50 411 -26 536 51 262 143 471 282 636 224 267 481 418 820 483 137 26 347 22 490 -9z"/> <path d="M1398 2565 c-129 -49 -241 -200 -225 -301 5 -32 3 -35 -36 -55 -23 -12 -60 -34 -82 -49 l-41 -28 -93 175 c-65 120 -97 171 -104 164 -7 -7 16 -65 75 -188 79 -164 92 -203 67 -203 -6 0 -50 84 -99 186 -52 108 -94 183 -100 179 -5 -3 -10 -11 -10 -17 0 -6 36 -86 80 -179 44 -93 80 -176 80 -184 0 -47 -36 5 -110 163 -93 196 -95 201 -110 186 -7 -7 16 -68 75 -193 47 -100 85 -186 85 -192 0 -6 -8 -9 -17 -7 -11 2 -46 65 -100 178 -45 96 -84 180 -86 185 -3 7 -8 7 -15 0 -7 -7 14 -68 67 -195 69 -167 80 -187 113 -209 l37 -24 -25 -30 c-53 -63 -112 -209 -133 -331 -6 -33 -11 -171 -11 -308 l0 -248 -28 0 c-56 0 -62 -20 -62 -192 0 -137 2 -157 18 -171 10 -10 31 -17 45 -17 l27 0 0 -100 c0 -157 -101 -140 833 -140 756 0 795 1 810 18 14 15 17 40 17 120 l0 102 29 0 c56 0 61 15 61 190 0 175 -5 190 -60 190 l-29 0 -3 293 c-4 288 -4 293 -32 375 -15 46 -26 85 -24 86 95 58 187 167 209 249 22 81 -7 172 -64 207 -106 65 -243 -28 -278 -190 l-11 -51 -41 47 c-41 46 -42 49 -42 123 -1 121 -55 208 -183 295 -102 70 -193 98 -327 103 -78 2 -121 -1 -147 -12z m267 -26 c122 -24 286 -139 334 -234 48 -97 41 -187 -19 -235 l-39 -31 -19 43 c-27 61 -118 142 -204 183 -168 80 -361 60 -452 -47 l-35 -40 -15 31 c-50 95 28 251 159 319 57 29 173 34 290 11z m-56 -254 c126 -30 251 -117 296 -206 19 -36 25 -64 25 -111 0 -79 -12 -100 -28 -53 -29 79 -189 181 -332 211 -126 27 -263 2 -347 -62 -18 -14 -33 -22 -33 -19 0 4 15 39 34 78 45 97 88 136 173 158 84 22 130 23 212 4z m794 -46 c32 -14 67 -89 67 -142 0 -47 -35 -127 -73 -169 -14 -14 -46 -43 -73 -63 -27 -21 -54 -45 -61 -54 -7 -9 -13 -13 -13 -9 0 4 -15 -1 -33 -11 l-34 -19 -12 102 c-17 140 -17 154 6 216 45 119 146 186 226 149z m-1199 -56 c12 -31 -13 -77 -56 -103 -22 -14 -67 -51 -99 -82 -67 -66 -73 -59 -40 46 19 63 32 77 124 127 61 34 63 34 71 12z m341 -84 c32 -6 83 -20 112 -31 44 -16 52 -23 51 -42 -2 -17 -7 -21 -24 -18 -12 2 -25 -2 -29 -8 -5 -9 -1 -10 16 -5 20 6 22 5 11 -6 -19 -20 -166 -17 -215 4 -21 9 -35 12 -32 7 18 -30 -70 16 -90 47 -30 45 -10 59 91 62 28 0 77 -4 109 -10z m-246 -42 c19 -49 236 -122 298 -100 15 5 16 3 6 -8 -19 -19 -16 -32 5 -23 9 4 42 10 72 14 43 6 50 9 33 15 -26 8 -31 25 -8 25 7 0 18 8 24 18 8 14 14 8 34 -38 50 -114 54 -140 31 -220 -7 -22 -4 -21 24 10 26 29 34 33 49 24 23 -14 28 -48 13 -85 -13 -31 -39 -44 -74 -35 -17 4 -28 -2 -45 -25 -13 -18 -51 -44 -90 -63 -59 -28 -76 -31 -156 -31 -82 0 -96 3 -158 33 -45 22 -77 47 -95 71 -27 37 -28 42 -30 186 -2 138 -1 151 22 201 14 30 28 54 31 54 3 0 10 -11 14 -23z m831 -107 c0 -14 7 -56 15 -95 20 -91 6 -103 -34 -28 -18 32 -59 89 -92 126 l-60 66 33 30 33 30 53 -52 c35 -35 52 -59 52 -77z m-1157 87 c-4 -17 -7 -49 -6 -69 1 -44 0 -45 -34 -18 -14 11 -35 20 -47 20 -12 0 -30 6 -39 13 -15 11 -15 13 1 32 9 11 26 21 37 23 11 2 26 9 32 16 7 6 25 13 39 14 24 2 25 0 17 -31z m190 -21 c-4 -27 -15 -45 -41 -64 -20 -15 -48 -44 -63 -65 l-28 -38 -15 30 -16 30 82 75 c45 42 83 75 84 73 2 -2 1 -20 -3 -41z m65 -11 c-10 -31 -19 -79 -20 -108 -1 -52 -1 -52 -14 -22 -7 17 -13 45 -14 63 0 36 32 107 52 115 7 3 13 6 14 6 0 1 -7 -24 -18 -54z m604 -42 c68 -71 78 -96 58 -147 -6 -17 -14 -24 -25 -20 -8 3 -12 10 -9 15 3 5 1 9 -4 9 -5 0 -13 21 -17 48 -6 35 -9 42 -15 27 -5 -16 -10 -9 -24 33 -10 28 -22 54 -27 57 -13 9 -11 25 4 25 7 0 33 -21 59 -47z m177 -45 c24 -29 61 -83 83 -120 38 -64 39 -69 27 -102 -13 -36 -29 -48 -29 -22 0 21 -57 125 -101 183 -25 34 -39 63 -39 83 0 16 4 30 8 30 5 0 28 -24 51 -52z m-1088 4 l32 -28 -42 -69 c-80 -134 -112 -247 -118 -425 -4 -97 -9 -140 -19 -151 -15 -16 -10 -49 7 -49 5 0 9 -36 9 -80 l0 -80 -40 0 -40 0 0 243 c0 258 6 316 46 437 25 79 107 230 124 230 5 0 24 -13 41 -28z m239 -19 c1 -16 7 -39 14 -52 8 -14 11 -41 9 -65 -10 -92 82 -216 188 -253 26 -10 45 -21 43 -25 -3 -4 -36 -8 -73 -8 -54 0 -77 5 -112 25 -24 14 -63 35 -86 47 l-43 22 0 66 c0 72 -15 104 -45 99 -13 -3 -24 -18 -31 -44 l-12 -40 -11 29 c-11 26 -8 34 25 84 40 61 112 142 125 142 5 0 9 -12 9 -27z m865 -158 c34 -62 75 -171 75 -202 0 -9 -23 -38 -51 -64 l-51 -47 23 -19 c29 -23 59 -53 82 -81 14 -19 17 -44 17 -170 0 -102 -4 -152 -12 -160 -8 -8 -64 -12 -185 -12 l-173 0 -6 24 c-8 35 17 75 76 121 29 22 62 56 72 75 25 45 19 106 -13 150 -32 43 -165 129 -211 137 -62 9 -43 18 40 19 99 0 142 16 186 65 27 29 36 48 36 74 0 19 -4 35 -9 35 -12 0 -19 91 -9 110 4 8 13 28 18 44 l11 29 25 -34 c14 -19 40 -61 59 -94z m-1044 78 c11 -30 -5 -73 -27 -73 -18 0 -37 -38 -31 -62 3 -10 -3 -45 -14 -76 -11 -31 -26 -106 -33 -167 -11 -100 -33 -165 -55 -165 -3 0 -3 53 0 117 7 119 23 203 60 296 21 54 77 157 85 157 2 0 9 -12 15 -27z m239 -60 c0 -35 -3 -44 -10 -33 -16 25 -11 80 7 80 2 0 3 -21 3 -47z m1057 -65 c26 -81 27 -89 31 -370 l4 -288 -36 0 -36 0 0 173 c0 197 -12 319 -39 407 -19 60 -19 62 -1 103 35 79 43 77 77 -25z m-1203 -35 c3 -43 8 -97 12 -119 7 -48 -8 -84 -35 -84 -18 0 -101 59 -101 72 0 4 12 11 28 14 28 7 74 34 57 34 -5 0 -29 -7 -52 -16 -47 -18 -57 -46 -23 -64 25 -13 26 -30 1 -30 -30 0 -44 26 -38 67 8 45 22 62 39 45 22 -22 27 -13 11 20 -19 38 -30 128 -16 128 6 0 20 -27 32 -60 23 -62 41 -85 41 -51 0 35 21 121 30 121 4 0 10 -35 14 -77z m826 -22 c0 -6 -5 -13 -10 -16 -6 -4 -8 -10 -5 -14 15 -26 -85 -71 -157 -71 l-53 0 34 17 c19 10 46 27 59 40 14 13 35 23 47 23 11 0 30 7 41 15 22 16 44 19 44 6z m299 -155 c1 -16 -1 -16 -14 -6 -9 7 -25 26 -37 42 -20 29 -20 30 -2 76 l18 47 17 -70 c10 -38 18 -78 18 -89z m-1000 19 c31 -30 34 -94 6 -125 -17 -19 -27 -21 -67 -17 -26 3 -61 13 -79 22 l-31 17 30 18 c36 22 57 76 47 122 l-7 31 38 -23 c22 -13 50 -33 63 -45z m341 0 c0 -8 -4 -15 -10 -15 -5 0 -12 -11 -16 -25 -11 -44 -84 -29 -84 17 0 26 15 22 39 -8 l21 -27 0 37 c0 32 3 36 25 36 16 0 25 -6 25 -15z m70 -20 c0 -16 -52 -55 -74 -55 -34 0 -17 37 29 61 32 17 45 16 45 -6z m525 5 c3 -11 19 -27 34 -36 l29 -17 -39 -37 -39 -37 -39 37 -39 37 29 17 c15 9 31 25 34 36 4 11 10 20 15 20 5 0 11 -9 15 -20z m-790 -12 c61 2 72 0 83 -18 11 -18 10 -20 -13 -20 -21 0 -25 -5 -25 -30 0 -39 25 -53 73 -38 29 9 42 8 70 -6 54 -25 67 -21 67 18 0 19 -4 37 -9 41 -5 3 1 17 15 30 28 28 39 32 30 10 -4 -12 -2 -13 15 -2 16 10 28 8 74 -17 160 -87 198 -175 113 -263 -30 -31 -57 -45 -43 -23 4 6 -1 22 -10 37 -14 21 -22 24 -51 20 -19 -3 -34 -2 -34 2 0 15 80 81 98 81 9 0 24 5 32 11 11 8 7 9 -18 6 -27 -3 -32 -1 -27 12 3 11 -1 9 -13 -5 -14 -17 -23 -19 -52 -11 -19 4 -42 15 -50 24 -14 14 -10 15 40 10 60 -6 40 6 -27 17 -35 5 -43 3 -43 -9 0 -8 8 -22 18 -31 16 -13 17 -22 9 -57 -16 -70 -25 -87 -48 -87 -12 0 -23 -8 -26 -20 -5 -20 -14 -24 -74 -34 -26 -5 -40 -2 -49 9 -15 18 -43 19 -71 4 -14 -7 -30 -7 -56 2 l-36 11 6 67 c5 64 17 106 51 184 9 22 13 36 8 33 -5 -3 -17 -23 -27 -46 -17 -38 -21 -40 -61 -40 -23 0 -49 3 -58 6 -14 5 -14 8 1 30 11 17 14 37 10 65 -5 37 -4 39 16 32 12 -4 54 -6 92 -5z m-395 -28 c8 0 28 -16 43 -35 44 -55 92 -74 204 -81 54 -3 99 -7 101 -9 6 -5 -20 -192 -33 -235 -7 -25 -16 -57 -19 -72 l-6 -28 -158 0 c-110 0 -162 4 -170 12 -7 7 -12 32 -12 57 0 52 26 96 77 131 30 21 46 60 24 60 -16 0 -71 51 -86 81 -18 34 -10 148 8 130 6 -6 18 -11 27 -11z m92 -22 c-15 -15 -38 -4 -45 21 -5 20 -4 20 25 5 21 -11 27 -19 20 -26z m1168 -208 l0 -180 -30 0 -30 0 0 154 c0 140 2 156 21 180 11 14 25 26 30 26 5 0 9 -76 9 -180z m-1289 50 c9 -10 25 -22 34 -27 15 -9 12 -15 -28 -55 l-45 -45 -13 23 c-7 14 -25 32 -41 43 l-29 18 35 26 c19 15 38 37 42 49 7 22 7 22 18 4 6 -11 18 -27 27 -36z m847 -72 c19 -19 14 -55 -9 -71 -11 -8 -24 -28 -28 -43 -9 -33 -40 -46 -42 -17 -1 16 -2 16 -6 1 -6 -25 -33 -10 -33 19 0 15 -4 22 -11 18 -6 -4 -8 -14 -5 -22 4 -9 1 -13 -6 -10 -8 2 -13 21 -12 45 0 27 -3 39 -10 35 -6 -4 -7 -2 -3 3 5 5 12 9 15 9 4 0 23 7 42 16 69 32 90 35 108 17z m-916 -64 c9 -16 18 -42 20 -59 3 -26 0 -30 -24 -33 -26 -3 -26 -2 -30 62 -3 71 6 79 34 30z m588 -20 c0 -3 -5 -14 -11 -25 -7 -15 -7 -24 1 -33 8 -10 7 -15 -4 -19 -10 -4 -16 2 -19 16 -3 15 -6 9 -12 -20 -6 -34 -12 -43 -28 -43 -16 0 -17 3 -7 15 7 8 13 34 14 57 1 36 5 43 26 49 34 9 40 10 40 3z m-115 -26 c24 -11 26 -15 19 -52 -3 -23 -7 -42 -8 -43 -6 -7 -71 -5 -70 2 2 19 27 105 30 105 2 0 15 -5 29 -12z m284 -22 c6 -8 32 -19 56 -25 26 -6 49 -19 55 -31 6 -11 7 -20 3 -20 -4 -1 -77 -2 -160 -3 -142 -2 -153 -1 -153 16 0 10 4 15 10 12 13 -8 50 13 50 29 0 8 21 17 53 23 73 15 73 15 86 -1z m-717 -81 l19 -25 600 0 600 0 23 25 c23 25 27 26 142 23 l119 -3 3 -72 3 -73 -71 0 c-61 0 -70 2 -70 18 0 32 -31 49 -85 49 -27 0 -58 -6 -68 -12 -15 -11 -24 -10 -45 1 -35 18 -82 18 -110 -1 -19 -14 -24 -14 -47 1 -21 14 -30 14 -55 4 -24 -10 -36 -10 -60 0 -17 7 -45 10 -67 6 -21 -4 -49 -6 -63 -6 -14 1 -46 2 -72 3 -69 3 -88 -18 -83 -95 3 -43 9 -64 22 -73 26 -20 77 -27 107 -15 14 5 46 7 69 4 31 -4 48 -2 58 8 26 26 49 29 71 8 24 -22 74 -27 80 -9 3 9 18 7 53 -4 41 -14 67 -16 93 -8 1 1 4 1 8 1 3 -1 13 9 24 22 l18 23 24 -22 c13 -13 37 -23 52 -23 23 0 30 7 47 45 l20 45 75 0 75 0 -3 -67 -3 -68 -885 0 -885 0 -3 68 -3 68 73 -3 c72 -3 73 -3 75 -31 4 -60 55 -75 108 -32 l29 24 33 -25 c45 -34 81 -39 125 -16 37 19 38 19 78 0 37 -19 44 -19 83 -6 37 12 48 12 77 0 96 -39 177 37 140 132 -18 49 -127 77 -155 40 -11 -15 -14 -15 -43 0 -39 20 -75 20 -113 0 -28 -14 -34 -14 -75 2 -38 15 -50 15 -91 3 -36 -10 -48 -10 -51 -1 -5 16 -114 16 -130 0 -7 -7 -12 -22 -12 -35 0 -21 -4 -23 -59 -23 -33 0 -66 -3 -75 -6 -14 -5 -16 5 -16 68 0 41 3 78 7 81 3 4 60 7 126 7 115 0 120 -1 139 -25z m6 -87 c22 -22 13 -38 -20 -39 -30 -1 -31 -2 -8 -8 35 -10 40 -41 6 -41 -21 0 -26 -5 -26 -26 0 -22 -4 -25 -27 -22 -27 3 -28 5 -31 67 -2 45 1 67 10 72 20 13 82 11 96 -3z m165 -17 c24 -23 25 -76 2 -101 -39 -43 -135 -7 -135 50 0 70 82 101 133 51z m180 -2 c25 -31 22 -84 -5 -103 -33 -23 -75 -20 -103 9 -32 31 -32 69 1 102 20 20 31 24 57 19 18 -3 40 -16 50 -27z m154 9 c25 -20 33 -55 22 -88 -12 -33 -36 -43 -90 -38 l-34 3 -3 64 c-2 44 1 67 10 73 17 11 75 3 95 -14z m240 -4 l28 -26 -37 6 c-46 6 -48 1 -9 -19 34 -17 48 -50 31 -70 -17 -21 -83 -19 -110 3 -29 23 -18 44 18 37 l27 -6 -26 15 c-36 21 -42 43 -19 66 27 27 63 25 97 -6z m137 16 c53 -20 58 -86 6 -96 -16 -4 -30 -14 -33 -25 -6 -21 -37 -25 -55 -7 -7 7 -12 35 -12 63 0 28 5 56 12 63 14 14 48 15 82 2z m120 -6 c23 -22 22 -122 0 -131 -31 -12 -49 11 -52 66 -4 71 18 99 52 65z m156 -2 c32 -26 39 -107 11 -122 -71 -37 -149 23 -120 93 19 46 71 60 109 29z m105 2 c15 -15 17 -15 36 2 19 17 20 17 41 -4 l22 -22 -22 -23 c-12 -13 -22 -36 -22 -50 0 -50 -61 -47 -68 4 -2 13 -10 32 -18 43 -17 25 -18 53 -1 59 6 3 13 6 14 6 1 1 9 -6 18 -15z m153 -336 l-3 -103 -795 0 -795 0 -3 103 -3 102 801 0 801 0 -3 -102z"/> <path d="M1284 2388 c3 -45 31 -106 43 -94 3 3 0 12 -7 21 -6 8 -18 38 -26 67 l-13 53 3 -47z"/> <path d="M1882 2400 c-5 -42 -25 -92 -47 -119 -30 -35 -32 -45 -5 -31 31 17 62 86 57 128 -2 20 -4 30 -5 22z"/> <path d="M1601 2331 c-10 -6 0 -8 27 -4 29 4 49 1 67 -11 24 -16 25 -16 25 4 0 18 -6 20 -52 20 -29 0 -60 -4 -67 -9z"/> <path d="M1878 2256 c-7 -35 11 -96 28 -96 3 0 2 5 -2 11 -4 7 -10 37 -13 68 l-7 56 -6 -39z"/> <path d="M1340 2225 c-12 -19 -20 -43 -18 -54 2 -13 10 -1 24 35 12 30 20 54 19 54 -2 0 -13 -16 -25 -35z"/> <path d="M1807 2150 c30 -111 32 -116 32 -85 0 17 -8 48 -19 70 -11 22 -17 29 -13 15z"/> <path d="M2433 2140 c1 -50 -21 -140 -34 -140 -5 0 -9 -7 -9 -15 0 -8 -28 -43 -62 -77 -35 -34 -49 -52 -33 -41 109 76 172 196 147 283 l-10 35 1 -45z"/> <path d="M1282 2001 c-10 -6 -4 -10 21 -15 19 -4 47 -16 61 -27 33 -26 34 -6 1 26 -24 25 -59 32 -83 16z"/> <path d="M1276 1899 c-14 -17 -26 -40 -26 -52 0 -19 3 -17 20 11 21 35 48 47 30 13 -15 -29 -12 -87 6 -105 62 -62 109 78 48 145 -24 27 -48 24 -78 -12z m52 -56 c-5 -25 -28 -28 -28 -4 0 12 6 21 16 21 9 0 14 -7 12 -17z"/> <path d="M1627 1889 c-20 -12 -47 -61 -47 -86 1 -11 8 -4 21 20 19 35 37 52 26 23 -4 -10 0 -12 15 -8 16 4 19 1 16 -14 -2 -11 -12 -19 -22 -19 -26 0 -31 -21 -12 -50 33 -51 95 -22 97 43 l1 37 13 -30 14 -30 1 33 c0 62 -72 111 -123 81z"/> <path d="M1817 1709 c-15 -27 -15 -31 -1 -25 8 3 20 6 25 6 5 0 9 5 9 11 0 5 -4 7 -10 4 -5 -3 -10 -1 -10 5 0 6 10 15 23 20 20 8 20 9 2 9 -12 1 -27 -11 -38 -30z"/> <path d="M1710 1696 c0 -22 -5 -26 -29 -26 -29 0 -57 21 -44 33 3 4 1 7 -5 7 -18 0 -14 -25 6 -43 21 -19 45 -21 73 -7 20 11 26 45 9 55 -6 4 -10 -5 -10 -19z"/> <path d="M1406 1641 c18 -36 59 -71 84 -71 26 0 67 36 79 70 10 29 9 30 -17 23 -35 -10 -122 -10 -144 1 -16 7 -16 6 -2 -23z m148 -3 c-28 -49 -77 -63 -109 -32 -23 23 -9 32 55 37 30 2 56 4 58 5 2 1 0 -4 -4 -10z"/> <path d="M1363 1334 c-3 -8 -1 -20 5 -26 16 -16 42 -2 42 22 0 24 -38 28 -47 4z"/> <path d="M1543 1314 c-3 -8 -1 -20 5 -26 16 -16 42 -2 42 22 0 24 -38 28 -47 4z"/> <path d="M1340 1235 c-15 -18 -6 -45 14 -45 22 0 38 34 24 48 -16 16 -23 15 -38 -3z"/> <path d="M1530 1215 c-16 -19 -5 -47 17 -43 11 2 18 12 18 27 0 29 -17 37 -35 16z"/> <path d="M801 838 c1 -55 5 -50 11 15 2 20 0 37 -4 37 -4 0 -7 -24 -7 -52z"/> <path d="M966 874 c-9 -8 -16 -27 -15 -42 1 -26 1 -26 10 5 10 33 43 53 61 35 5 -5 8 -25 6 -43 -4 -42 -33 -52 -47 -17 l-10 23 0 -22 c-1 -16 6 -24 23 -29 34 -8 46 2 47 39 0 27 2 29 9 12 8 -19 9 -19 9 2 1 24 -33 53 -61 53 -9 0 -24 -7 -32 -16z"/> <path d="M1000 829 c0 -17 4 -28 10 -24 6 3 10 17 10 31 0 13 -4 24 -10 24 -5 0 -10 -14 -10 -31z"/> <path d="M1142 878 c-7 -7 -11 -28 -11 -47 l2 -36 6 34 c7 38 30 58 55 48 18 -7 21 -48 5 -79 -9 -16 -8 -19 3 -16 18 6 23 88 6 99 -19 13 -52 11 -66 -3z"/> <path d="M1176 845 c-3 -9 -2 -24 3 -32 7 -14 10 -13 16 6 8 27 -9 51 -19 26z"/> <path d="M1310 837 c0 -51 1 -53 29 -55 32 -2 61 20 61 46 0 32 -29 62 -61 62 -28 0 -29 -1 -29 -53z m55 -2 c0 -29 -4 -41 -16 -43 -13 -2 -18 7 -21 43 -3 41 -1 45 17 43 16 -2 20 -11 20 -43z"/> <path d="M1560 851 c0 -5 10 -16 23 -25 22 -15 22 -16 3 -31 -19 -14 -19 -15 7 -15 41 0 47 28 11 57 -31 24 -44 29 -44 14z"/> <path d="M1702 833 l2 -58 3 53 c4 47 6 52 28 52 30 0 39 -14 25 -40 -11 -20 -4 -26 15 -12 32 23 7 62 -41 62 l-34 0 2 -57z"/> <path d="M1861 833 c1 -62 6 -56 11 15 2 23 0 42 -4 42 -5 0 -7 -26 -7 -57z"/> <path d="M1966 874 c-9 -8 -15 -27 -15 -42 2 -24 2 -24 6 -4 3 13 9 19 15 16 7 -5 8 -2 3 6 -9 14 11 30 38 30 14 0 17 -5 12 -20 -7 -21 9 -28 20 -10 20 32 -50 53 -79 24z"/> <path d="M2001 842 c-1 -14 7 -26 21 -31 18 -7 19 -8 4 -14 -10 -4 -24 1 -37 14 -18 18 -20 18 -17 3 5 -29 33 -40 65 -25 l28 13 -25 13 c-13 7 -27 21 -31 31 -7 17 -8 16 -8 -4z"/> <path d="M2188 871 c-9 -15 -15 -17 -25 -9 -8 6 -17 8 -21 4 -4 -4 0 -13 8 -19 8 -7 14 -25 13 -42 -1 -18 1 -22 4 -11 3 11 16 37 29 58 13 21 20 38 14 38 -5 0 -15 -9 -22 -19z"/> <path d="M907 583 c-15 -14 -6 -25 9 -12 15 12 16 10 12 -24 -3 -29 -1 -37 12 -37 12 0 15 9 13 38 -2 20 0 31 3 24 3 -6 10 -10 15 -6 5 3 7 10 4 15 -7 10 -58 12 -68 2z"/> <path d="M1025 580 c3 -5 -1 -23 -10 -40 -14 -27 -14 -30 0 -30 9 0 13 5 10 10 -3 6 1 10 9 10 9 0 16 -4 16 -10 0 -5 6 -10 14 -10 12 0 12 6 -1 40 -9 22 -22 40 -30 40 -8 0 -11 -4 -8 -10z"/> <path d="M1114 578 c-4 -6 3 -19 16 -30 12 -10 19 -22 15 -26 -4 -4 -10 -1 -12 6 -5 13 -23 7 -23 -9 0 -12 47 -12 55 1 3 6 3 16 -2 23 -4 6 -6 20 -5 30 4 20 -32 24 -44 5z"/> <path d="M1201 573 c0 -11 3 -13 6 -5 10 26 25 11 21 -23 -2 -21 0 -35 7 -35 7 0 9 14 7 35 -4 34 11 49 21 23 3 -8 6 -6 6 5 1 13 -7 17 -34 17 -27 0 -35 -4 -34 -17z"/> <path d="M1305 550 c0 -37 2 -40 27 -40 15 0 30 5 34 11 4 8 0 9 -15 4 -22 -7 -30 10 -8 18 10 4 10 6 0 6 -7 1 -13 8 -13 16 0 18 16 20 23 3 3 -8 6 -6 6 5 1 12 -7 17 -26 17 -26 0 -28 -3 -28 -40z"/> <path d="M1455 550 c0 -38 1 -40 33 -40 17 0 32 5 32 11 0 6 -9 8 -21 4 -20 -7 -21 -4 -17 29 3 28 0 36 -12 36 -11 0 -15 -11 -15 -40z"/> <path d="M1555 550 c0 -23 5 -40 11 -40 7 0 9 10 6 25 -2 14 1 32 8 40 10 12 9 15 -6 15 -15 0 -19 -8 -19 -40z"/> <path d="M1625 550 c0 -25 5 -40 12 -40 7 0 10 7 7 15 -4 8 -2 15 4 15 5 0 12 -7 16 -15 3 -8 13 -15 22 -15 15 0 14 3 -5 24 l-22 24 22 16 c18 12 19 16 7 16 -9 0 -18 -7 -22 -15 -3 -8 -10 -15 -17 -15 -6 0 -9 7 -5 15 3 8 0 15 -7 15 -7 0 -12 -15 -12 -40z"/> <path d="M1735 550 c0 -37 2 -40 28 -40 15 0 27 4 27 10 0 5 -6 7 -13 4 -10 -3 -14 4 -15 26 -1 30 12 41 21 18 3 -8 6 -6 6 5 1 12 -7 17 -26 17 -26 0 -28 -3 -28 -40z"/> <path d="M1885 550 c0 -37 2 -40 27 -40 15 0 30 5 34 11 4 8 0 9 -15 4 -22 -7 -30 10 -8 18 10 4 10 6 0 6 -7 1 -13 8 -13 16 0 18 16 20 23 3 3 -8 6 -6 6 5 1 12 -7 17 -26 17 -26 0 -28 -3 -28 -40z"/> <path d="M1988 578 c17 -17 15 -45 -5 -57 -16 -9 -15 -10 5 -11 13 0 21 4 17 9 -3 5 -1 12 5 16 5 3 10 -1 10 -9 0 -9 9 -16 20 -16 20 0 20 0 -1 21 -20 20 -20 22 -3 40 16 17 16 19 1 19 -10 0 -17 -5 -17 -12 0 -9 -3 -9 -12 0 -7 7 -16 12 -22 12 -6 0 -5 -5 2 -12z"/> <path d="M2052 2818 c-7 -7 -12 -17 -12 -22 0 -6 7 -2 15 8 14 19 15 19 15 -7 0 -33 11 -34 29 -4 13 20 13 21 -2 8 -15 -12 -17 -11 -17 8 0 24 -10 27 -28 9z"/> <path d="M513 2583 c-12 -12 -18 -25 -12 -28 5 -4 9 -15 9 -26 0 -14 4 -18 13 -12 6 4 20 6 29 5 12 -2 16 2 12 11 -3 8 -1 18 5 22 16 9 13 25 -4 25 -7 0 -18 6 -22 13 -6 9 -13 7 -30 -10z"/> <path d="M2565 2479 c-4 -11 -16 -19 -28 -19 -20 -1 -21 -2 -4 -14 9 -7 17 -21 17 -30 0 -13 5 -16 19 -11 11 3 23 0 27 -7 6 -9 10 -2 15 20 5 27 2 38 -17 57 -22 22 -23 22 -29 4z"/> <path d="M310 2371 c0 -5 7 -11 15 -15 24 -9 38 -55 23 -75 -8 -10 -5 -9 10 3 12 11 18 22 14 25 -5 3 -12 15 -16 26 -6 21 -46 52 -46 36z"/> <path d="M260 2307 c0 -4 9 -26 21 -48 17 -34 18 -43 7 -57 -9 -11 -10 -14 -1 -8 7 4 18 17 24 29 7 12 8 18 3 14 -4 -4 -18 11 -31 35 -12 24 -22 39 -23 35z"/> <path d="M2780 2170 c-7 -17 -19 -34 -28 -39 -10 -6 -11 -10 -3 -15 6 -4 14 0 17 8 3 9 11 16 16 16 6 0 7 -8 3 -17 -5 -15 -4 -16 6 -5 10 9 10 15 2 23 -6 6 -9 18 -6 25 4 12 8 12 22 2 14 -12 15 -11 1 7 -8 11 -15 21 -16 23 -1 1 -7 -11 -14 -28z"/> <path d="M220 2175 c-7 -8 -17 -12 -24 -8 -7 4 -6 1 1 -7 10 -11 16 -10 32 4 12 11 21 14 25 7 9 -14 -12 -53 -25 -46 -5 4 -9 2 -9 -4 0 -24 20 -19 35 8 24 47 -4 84 -35 46z"/> <path d="M2831 2092 c-6 -11 -18 -28 -27 -37 -13 -12 -14 -19 -5 -28 8 -8 11 -7 11 6 0 9 3 17 8 17 8 0 34 52 28 58 -3 2 -9 -5 -15 -16z"/> <path d="M144 2089 c-3 -5 -2 -9 3 -8 21 4 33 -2 33 -16 0 -18 -16 -20 -24 -2 -3 6 -3 1 0 -13 4 -14 12 -36 19 -49 10 -20 13 -21 18 -7 4 10 3 15 -3 11 -13 -8 -13 35 0 55 9 13 11 13 20 0 8 -13 10 -13 10 1 0 18 -67 43 -76 28z"/> <path d="M2819 2005 c-6 -26 31 -126 43 -119 6 4 6 9 1 13 -24 15 -23 44 2 69 14 13 25 30 25 36 0 6 -12 -1 -25 -16 -13 -16 -26 -28 -29 -28 -3 0 -6 15 -8 33 -3 23 -5 27 -9 12z"/> <path d="M125 1944 c17 -15 29 -33 27 -41 -6 -26 6 -13 17 19 9 25 9 30 0 21 -9 -9 -19 -7 -43 8 l-31 21 30 -28z"/> <path d="M2897 1883 c-4 -3 -7 -25 -7 -47 0 -32 -3 -38 -11 -26 -7 10 -9 11 -7 2 8 -29 23 -15 26 23 2 22 9 43 15 47 8 5 8 8 1 8 -6 0 -14 -3 -17 -7z"/> <path d="M80 1732 c0 -6 6 -12 13 -15 9 -3 9 -7 -2 -20 -13 -16 -14 -16 -26 -1 -9 14 -14 14 -20 4 -5 -8 -4 -11 2 -7 6 4 13 0 17 -8 3 -9 0 -15 -10 -15 -8 0 -12 -5 -9 -10 4 -6 10 -8 15 -5 5 3 11 1 15 -5 8 -13 35 -13 35 0 0 5 -7 7 -15 4 -17 -7 -21 21 -5 31 5 3 15 16 21 28 7 12 8 19 4 15 -5 -4 -14 -3 -22 3 -8 8 -13 8 -13 1z"/> <path d="M2911 1718 c-1 -10 -5 -18 -11 -18 -5 0 -10 -5 -10 -10 0 -6 13 -4 30 5 30 16 42 32 16 22 -8 -3 -17 -1 -20 6 -2 7 -5 4 -5 -5z"/> <path d="M2904 1539 c-4 -7 -3 -9 4 -5 19 11 26 -16 8 -30 -10 -7 -16 -21 -13 -31 3 -15 6 -13 15 10 7 15 19 30 27 33 8 4 15 10 15 16 0 5 -5 6 -10 3 -6 -4 -17 -2 -25 5 -10 8 -15 8 -21 -1z"/> <path d="M91 1493 c-1 -6 -17 -17 -36 -23 -19 -6 -35 -16 -35 -21 0 -6 8 -5 20 1 18 9 20 7 21 -17 2 -27 2 -27 6 -3 2 14 11 30 20 37 8 6 13 18 10 25 -4 8 -6 9 -6 1z"/> <path d="M82 1358 c-7 -7 -12 -27 -12 -45 0 -20 -7 -36 -17 -42 -16 -9 -16 -10 -2 -11 20 0 29 20 29 62 0 23 4 29 15 24 8 -3 15 -1 15 4 0 15 -16 20 -28 8z"/> <path d="M106 1262 c-3 -6 -2 -12 2 -14 18 -6 22 -55 7 -68 -13 -10 -15 -9 -15 9 0 13 -4 19 -10 16 -7 -4 -7 -12 -1 -23 7 -12 5 -23 -7 -37 -9 -11 0 -6 20 10 33 27 36 34 31 65 -6 39 -18 57 -27 42z"/> <path d="M161 1108 c-1 -9 -7 -23 -13 -30 -42 -45 -48 -59 -13 -28 22 19 40 35 41 35 1 0 -2 9 -7 20 -6 16 -8 17 -8 3z"/> <path d="M193 992 l-10 -27 -10 24 c-8 20 -11 21 -16 8 -4 -10 -2 -17 4 -17 6 0 9 -10 7 -22 -2 -13 -9 -22 -15 -21 -7 2 -10 -4 -6 -13 4 -11 12 -5 31 23 14 21 29 40 33 43 4 3 5 11 0 18 -5 8 -11 3 -18 -16z"/> <path d="M2795 982 c34 -24 55 -96 23 -76 -7 5 -8 2 -3 -5 6 -10 10 -10 22 1 12 13 11 20 -7 51 -12 21 -27 37 -33 37 -8 0 -8 -3 -2 -8z"/> <path d="M420 578 c0 -10 -6 -18 -14 -18 -25 0 4 -45 30 -46 13 -1 21 2 18 8 -3 5 0 15 6 23 10 12 10 15 0 15 -7 0 -19 8 -26 18 -13 16 -13 16 -14 0z"/> <path d="M2550 568 c0 -12 -8 -18 -22 -18 -19 0 -20 -2 -6 -17 9 -10 14 -23 11 -29 -2 -7 8 -11 27 -10 21 1 29 5 25 15 -3 7 0 20 6 27 9 11 8 14 -1 14 -7 0 -19 8 -26 18 -13 16 -13 16 -14 0z"/> <path d="M901 210 c-12 -17 -17 -30 -11 -30 5 0 10 5 10 11 0 6 7 9 14 6 11 -4 13 -1 9 10 -5 13 -2 15 15 11 27 -7 28 -2 4 11 -15 8 -23 4 -41 -19z"/> <path d="M955 194 c-18 -19 -16 -33 8 -48 12 -8 21 -5 37 9 21 19 21 19 15 -7 -5 -21 -3 -27 15 -33 26 -8 50 11 49 39 -2 19 -2 19 -6 -2 -5 -28 -30 -39 -46 -23 -9 10 -6 17 13 33 18 16 20 19 6 14 -11 -3 -23 -1 -30 6 -6 7 -10 11 -9 9 5 -9 -19 -41 -32 -41 -26 0 -29 23 -5 42 12 10 18 18 12 18 -6 0 -18 -7 -27 -16z"/> <path d="M1950 130 c0 -16 -4 -30 -10 -30 -5 0 -10 9 -10 19 0 24 -13 33 -34 25 -20 -8 -20 -25 0 -50 14 -18 15 -18 4 4 -11 23 -6 42 11 42 5 0 9 -9 9 -19 0 -11 5 -23 10 -26 17 -11 38 14 33 38 -4 20 -3 21 10 5 8 -10 20 -18 28 -18 14 0 -29 39 -43 40 -5 0 -8 -13 -8 -30z"/> <path d="M1190 115 c0 -9 7 -18 15 -21 22 -9 18 -27 -5 -21 -11 3 -18 1 -14 -4 7 -13 31 -11 40 3 4 6 0 16 -9 23 -23 17 -21 28 3 22 11 -3 18 -1 14 4 -9 15 -44 10 -44 -6z"/> <path d="M1859 109 c5 -15 7 -30 4 -33 -14 -13 -30 -5 -40 22 -6 15 -11 20 -12 11 -1 -8 5 -24 13 -35 12 -15 18 -17 33 -8 18 12 19 41 2 59 -7 6 -7 0 0 -16z"/> <path d="M1250 94 c-13 -34 -13 -41 2 -26 7 7 20 12 30 12 11 0 18 7 17 18 0 10 -3 12 -6 5 -5 -15 -33 -18 -33 -4 0 5 6 12 13 14 9 4 9 6 -1 6 -7 1 -17 -11 -22 -25z"/> <path d="M1708 80 c2 -17 8 -33 14 -36 5 -3 6 6 2 21 -4 18 -2 30 7 36 11 7 9 9 -7 9 -17 0 -20 -5 -16 -30z"/> <path d="M1756 84 c-8 -31 -5 -36 14 -24 10 6 11 10 3 10 -7 0 -10 7 -7 15 5 12 10 11 26 -8 l20 -22 -14 24 c-21 35 -34 36 -42 5z"/> <path d="M1415 85 c4 -11 10 -28 12 -38 5 -15 8 -14 19 9 18 33 18 39 0 25 -11 -10 -17 -8 -26 6 -11 17 -11 16 -5 -2z"/> <path d="M1630 84 c0 -9 9 -18 20 -21 11 -3 20 -10 20 -15 0 -6 -10 -8 -21 -5 -16 4 -19 3 -11 -5 6 -6 18 -8 26 -5 23 9 20 37 -4 37 -11 0 -20 5 -20 11 0 6 9 9 20 6 11 -3 22 -2 24 2 3 4 -9 8 -25 9 -21 2 -29 -2 -29 -14z"/> <path d="M1501 58 c0 -18 3 -27 6 -20 2 6 11 12 18 12 7 0 15 -6 18 -12 2 -7 4 2 5 20 1 28 -3 32 -24 32 -21 0 -24 -5 -23 -32z"/> </g> </svg> 